<svg xmlns="http://www.w3.org/2000/svg" width="20" height="20" viewBox="0 0 20 20">
  <defs>
    <style>
      .cls-1 {
        fill: #fff;
        fill-rule: evenodd;
      }
    </style>
  </defs>
  <path id="gitbhub-icon" class="cls-1" d="M770.071,743.431a9.953,9.953,0,0,1-3.179,2.189q-0.455.2-.921,0.345v-1.823a2.4,2.4,0,0,0-.965-2.113,10.378,10.378,0,0,0,1.11-.166,8.48,8.48,0,0,0,1.07-.309,5.3,5.3,0,0,0,1.012-.481,4.363,4.363,0,0,0,1.552-1.733,5.633,5.633,0,0,0,.442-1.354,8.664,8.664,0,0,0,.162-1.739,4.5,4.5,0,0,0-1.174-3.135,4.226,4.226,0,0,0-.116-3.1l-0.291-.035a2.813,2.813,0,0,0-1.087.261,8.427,8.427,0,0,0-1.762.973,10.5,10.5,0,0,0-2.872-.391,10.29,10.29,0,0,0-2.86.391,9.933,9.933,0,0,0-1.169-.706,5.908,5.908,0,0,0-.884-0.38,3.007,3.007,0,0,0-.616-0.125,2.227,2.227,0,0,0-.366-0.012,0.718,0.718,0,0,0-.116.024,4.228,4.228,0,0,0-.117,3.1,4.5,4.5,0,0,0-1.174,3.135,8.588,8.588,0,0,0,.163,1.739,5.589,5.589,0,0,0,.442,1.354,4.343,4.343,0,0,0,1.552,1.733,5.289,5.289,0,0,0,1.011.481,8.48,8.48,0,0,0,1.07.309,10.4,10.4,0,0,0,1.111.166,2.4,2.4,0,0,0-.954,2.113V746a9.842,9.842,0,0,1-1.037-.38,9.953,9.953,0,0,1-3.179-2.189,10.193,10.193,0,0,1-2.144-3.246,10.452,10.452,0,0,1,0-7.948,10.193,10.193,0,0,1,2.144-3.246,9.953,9.953,0,0,1,3.179-2.189,9.845,9.845,0,0,1,7.784,0,9.942,9.942,0,0,1,3.179,2.189,10.193,10.193,0,0,1,2.144,3.246,10.452,10.452,0,0,1,0,7.948A10.193,10.193,0,0,1,770.071,743.431Z" transform="translate(-753 -726)"/>
</svg>
