<svg xmlns="http://www.w3.org/2000/svg" width="22" height="20" viewBox="0 0 22 20">
  <defs>
    <style>
      .cls-1 {
        fill: #fff;
        fill-rule: evenodd;
      }
    </style>
  </defs>
  <path id="linkedin-icon" class="cls-1" d="M695.023,747h4.392V732.717h-4.392V747Zm17.111-14.778a6.661,6.661,0,0,0-5.392,2.436V732.67h-4.408V747h4.408v-7.749a3.449,3.449,0,0,1,3.464-3.236c1.926,0,2.4,1.6,2.4,3.2V747H717v-8.106C717,733.261,714.266,732.222,712.134,732.222ZM697.2,731.29a2.146,2.146,0,1,0-2.2-2.146A2.173,2.173,0,0,0,697.2,731.29Z" transform="translate(-695 -727)"/>
</svg>
