<svg xmlns="http://www.w3.org/2000/svg" width="20" height="16" viewBox="0 0 20 16">
  <defs>
    <style>
      .cls-1 {
        fill: #fff;
        fill-rule: evenodd;
      }
    </style>
  </defs>
  <path id="twitter-icon" class="cls-1" d="M656.95,732.981l0.013,0.524A11.5,11.5,0,0,1,645.289,745,11.749,11.749,0,0,1,639,743.185a8.551,8.551,0,0,0,.979.057,8.313,8.313,0,0,0,5.095-1.729,4.1,4.1,0,0,1-3.832-2.806,4.306,4.306,0,0,0,1.853-.07,4.061,4.061,0,0,1-3.291-3.961v-0.051a4.143,4.143,0,0,0,1.858.506,4.023,4.023,0,0,1-1.825-3.362,3.98,3.98,0,0,1,.554-2.03,11.706,11.706,0,0,0,8.458,4.221,3.941,3.941,0,0,1-.106-0.921,4.072,4.072,0,0,1,4.1-4.039,4.132,4.132,0,0,1,3,1.276,8.393,8.393,0,0,0,2.606-.981,4.058,4.058,0,0,1-1.8,2.236A8.307,8.307,0,0,0,659,730.9,8.211,8.211,0,0,1,656.95,732.981Z" transform="translate(-639 -729)"/>
</svg>
